<?xml version="1.0" encoding="UTF-8"?>
<svg version="1.1" xmlns="http://www.w3.org/2000/svg" width="300" height="300">
<path d="M0 0 C1.38638672 0.60134766 1.38638672 0.60134766 2.80078125 1.21484375 C17.60814495 8.44050213 28.59445659 21.50069307 34 37 C38.18543936 50.8104389 37.95102579 67.77342543 32 81 C31.59910156 81.92425781 31.19820313 82.84851563 30.78515625 83.80078125 C23.55949787 98.60814495 10.49930693 109.59445659 -5 115 C-18.8104389 119.18543936 -35.77342543 118.95102579 -49 113 C-49.92425781 112.59910156 -50.84851563 112.19820313 -51.80078125 111.78515625 C-66.60814495 104.55949787 -77.59445659 91.49930693 -83 76 C-87.18543936 62.1895611 -86.95102579 45.22657457 -81 32 C-80.59910156 31.07574219 -80.19820313 30.15148437 -79.78515625 29.19921875 C-72.55949787 14.39185505 -59.49930693 3.40554341 -44 -2 C-30.1895611 -6.18543936 -13.22657457 -5.95102579 0 0 Z " fill="#FCFCFB" transform="translate(175,94)"/>
<path d="M0 0 C0.11728126 3.66639248 0.18760891 7.3322952 0.25 11 C0.28351563 12.02996094 0.31703125 13.05992188 0.3515625 14.12109375 C0.4328102 20.49903817 0.14180154 25.88651022 -4 31 C-7.12890625 33.171875 -7.12890625 33.171875 -10.5625 34.75 C-16.14042148 37.35851719 -18.79520633 39.04617827 -21.1328125 44.77734375 C-23.5747924 52.55514588 -24.73339366 59.8551763 -25 68 C-25.66 68 -26.32 68 -27 68 C-27.02578125 67.175 -27.0515625 66.35 -27.078125 65.5 C-27.63006543 54.26048571 -28.53440335 40.49297813 -36.20703125 31.6171875 C-39.51577762 28.63282803 -43.16453614 26.2501388 -47 24 C-47 24.66 -47 25.32 -47 26 C-46.319375 26.165 -45.63875 26.33 -44.9375 26.5 C-40.66369158 28.68237026 -37.70808631 32.05883693 -35 36 C-35 36.99 -35 37.98 -35 39 C-41.6767463 39.83459329 -41.6767463 39.83459329 -45.13671875 37.65234375 C-48.27170694 34.93535398 -50.86096055 32.18294664 -53.375 28.875 C-56.9747995 24.93236245 -61.1630788 23.12261008 -66 21 C-62.18118544 16.77202674 -60.03991878 16.15605936 -54.42578125 15.7265625 C-46.25522584 15.4428351 -39.52469464 15.40312891 -33 21 C-28.35124866 25.64875134 -28.50845348 30.5334174 -28.21484375 36.78515625 C-27.95021254 40.74500139 -27.11669952 44.20322162 -26 48 C-25.505 46.88625 -25.01 45.7725 -24.5 44.625 C-22.20344829 39.96557017 -19.07713346 36.22345049 -15.70703125 32.296875 C-14.06894257 30.09276483 -13.41175243 28.67946357 -13 26 C-13.5775 26.94875 -14.155 27.8975 -14.75 28.875 C-16.82816551 31.76134098 -17.75468075 32.84095741 -21 34 C-24.06967924 28.58219959 -23.64107754 23.39335616 -22.0625 17.5 C-18.45633142 10.18560146 -8.63411254 0 0 0 Z " fill="#77B249" transform="translate(176,110)"/>
<path d="M0 0 C0.05799124 3.77076889 0.09359306 7.54142334 0.125 11.3125 C0.14175781 12.38435547 0.15851563 13.45621094 0.17578125 14.56054688 C0.18222656 15.58857422 0.18867188 16.61660156 0.1953125 17.67578125 C0.20578613 18.62364502 0.21625977 19.57150879 0.22705078 20.5480957 C-0.13116638 24.41645587 -2.03308758 26.03088174 -4.8125 28.625 C-7.80739341 30.85648921 -9.35893251 31.67872934 -13 32 C-12.67 29.36 -12.34 26.72 -12 24 C-12.31453125 24.55429688 -12.6290625 25.10859375 -12.953125 25.6796875 C-13.38109375 26.40414062 -13.8090625 27.12859375 -14.25 27.875 C-14.66765625 28.59429687 -15.0853125 29.31359375 -15.515625 30.0546875 C-17.15928076 32.20874162 -18.51567335 32.99140585 -21 34 C-24.06967924 28.58219959 -23.64107754 23.39335616 -22.0625 17.5 C-18.45633142 10.18560146 -8.63411254 0 0 0 Z " fill="#80B743" transform="translate(176,110)"/>
<path d="M0 0 C0.66 0 1.32 0 2 0 C2.49155527 10.2316319 0.68820118 15.54159 -6.15625 23.18359375 C-8 25 -8 25 -11.3125 27.1875 C-14.32872971 29.22170143 -15.04186621 30.55071835 -16 34 C-18.97 34 -21.94 34 -25 34 C-24.54621125 26.5124856 -23.42823188 22.06736537 -17.625 16.875 C-9.52173913 11.08695652 -9.52173913 11.08695652 -5 9 C-5.53069061 12.82097239 -6.49701566 15.06171403 -9 18 C-5.24473777 14.81156981 -4.10451883 12.02177679 -2.8125 7.3125 C-1.06944444 1.06944444 -1.06944444 1.06944444 0 0 Z " fill="#D9B665" transform="translate(177,144)"/>
<path d="M0 0 C0.99 0 1.98 0 3 0 C3.15855469 0.79664063 3.31710938 1.59328125 3.48046875 2.4140625 C4.91614752 8.93410641 6.17996097 13.3102323 11 18 C10.525625 17.4225 10.05125 16.845 9.5625 16.25 C8.0515133 14.07417916 7.45963849 12.57397552 7 10 C10.87170143 10.5531002 12.29810367 12.29810367 15 15 C15.99 15.474375 16.98 15.94875 18 16.4375 C22.42006289 18.73961609 24.35163129 21.4439151 26.25 26 C26.95411625 28.81646501 27.16971728 31.11480631 27 34 C24.03 34 21.06 34 18 34 C17.67 33.13375 17.34 32.2675 17 31.375 C14.75054954 27.57905235 12.52531 25.99617642 9 23.48828125 C3.84496031 19.65220679 1.41463333 15.57192676 0.26953125 9.2578125 C-0.10397575 6.1290147 -0.13393675 3.14751366 0 0 Z " fill="#D8B563" transform="translate(121,144)"/>
<path d="M0 0 C0.33 0.99 0.66 1.98 1 3 C-2.66070251 7.01552238 -6.63191957 9.03601954 -11.44140625 11.4375 C-17.17073098 14.93632426 -18.31842204 20.22222609 -20.1484375 26.3828125 C-21.44434584 31.88745068 -21.81539609 37.36035067 -22 43 C-22.66 43 -23.32 43 -24 43 C-24 37.06 -24 31.12 -24 25 C-23.34 25 -22.68 25 -22 25 C-21.979375 24.030625 -21.95875 23.06125 -21.9375 22.0625 C-20.91007169 14.72159917 -14.18989759 8.87535834 -9 4 C-9 4.66 -9 5.32 -9 6 C-4.64464931 4.83857315 -2.35380297 3.92300495 0 0 Z " fill="#66AA47" transform="translate(173,135)"/>
<path d="M0 0 C0.66 0 1.32 0 2 0 C2 0.66 2 1.32 2 2 C2.66 2 3.32 2 4 2 C6 5 6 5 6 8 C3.6875 8.6875 3.6875 8.6875 1 9 C-0.8125 7.5625 -0.8125 7.5625 -2 6 C-1.67 7.32 -1.34 8.64 -1 10 C-1.66 10 -2.32 10 -3 10 C-3.66 9.34 -4.32 8.68 -5 8 C-5.33 8.99 -5.66 9.98 -6 11 C-5.34 11.33 -4.68 11.66 -4 12 C-5.32 11.67 -6.64 11.34 -8 11 C-8 11.99 -8 12.98 -8 14 C-10 14 -10 14 -11.625 12.5 C-12.07875 12.005 -12.5325 11.51 -13 11 C-13 12.32 -13 13.64 -13 15 C-13.66 15 -14.32 15 -15 15 C-15.33 13.35 -15.66 11.7 -16 10 C-15.01 9.34 -14.02 8.68 -13 8 C-13 7.34 -13 6.68 -13 6 C-10.66666667 6 -8.33333333 6 -6 6 C-6 5.01 -6 4.02 -6 3 C-4.35 3 -2.7 3 -1 3 C-0.67 2.01 -0.34 1.02 0 0 Z " fill="#6E6E6E" transform="translate(185,171)"/>
<path d="M0 0 C0.99 0 1.98 0 3 0 C3.18175781 0.80824219 3.36351563 1.61648437 3.55078125 2.44921875 C3.80214844 3.51785156 4.05351563 4.58648437 4.3125 5.6875 C4.55613281 6.74324219 4.79976563 7.79898438 5.05078125 8.88671875 C5.99420861 11.9810052 7.3299182 14.25395514 9 17 C9 20 9 20 8 23 C2.39379569 17.5172027 0.29204255 12.68439959 -0.109375 4.87109375 C-0.12249867 3.24703959 -0.06904846 1.62263873 0 0 Z " fill="#D8B664" transform="translate(121,144)"/>
<path d="M0 0 C0.66 0 1.32 0 2 0 C2.55353075 11.52164009 2.55353075 11.52164009 -1 17 C-2.32 16.34 -3.64 15.68 -5 15 C-4.35814255 12.68632778 -3.71172608 10.3741043 -3.0625 8.0625 C-2.78889648 7.0734668 -2.78889648 7.0734668 -2.50976562 6.06445312 C-1.11328125 1.11328125 -1.11328125 1.11328125 0 0 Z " fill="#D9B768" transform="translate(177,144)"/>
<path d="M0 0 C0.66 0 1.32 0 2 0 C2 0.99 2 1.98 2 3 C5.09538161 3.99494409 6.89827875 3.85564724 10 3 C11 4 11 4 11.0625 6.5625 C11.041875 7.366875 11.02125 8.17125 11 9 C8.36 9 5.72 9 3 9 C2.67 7.68 2.34 6.36 2 5 C1.67 5.99 1.34 6.98 1 8 C0.34 8 -0.32 8 -1 8 C-0.67 5.36 -0.34 2.72 0 0 Z " fill="#5B5B5B" transform="translate(137,180)"/>
<path d="M0 0 C5.34256597 1.50259668 9.23728366 5.05971727 13 9 C14.5 11.9375 14.5 11.9375 15 14 C13 16 13 16 11.0546875 16.1953125 C9.03645833 16.13020833 7.01822917 16.06510417 5 16 C5 15.67 5 15.34 5 15 C7.31 15 9.62 15 12 15 C9.36260948 9.50543642 6.68268511 6.64083954 1.609375 3.26171875 C1.07828125 2.84535156 0.5471875 2.42898437 0 2 C0 1.34 0 0.68 0 0 Z " fill="#CFE4C5" transform="translate(129,134)"/>
<path d="M0 0 C0.66 0 1.32 0 2 0 C2 0.66 2 1.32 2 2 C2.99 2 3.98 2 5 2 C4.67 4.31 4.34 6.62 4 9 C3.34 9 2.68 9 2 9 C2 7.68 2 6.36 2 5 C1.34 5 0.68 5 0 5 C0 5.99 0 6.98 0 8 C-0.66 8 -1.32 8 -2 8 C-1.67 6.68 -1.34 5.36 -1 4 C-1.99 4 -2.98 4 -4 4 C-4 4.99 -4 5.98 -4 7 C-4.66 7 -5.32 7 -6 7 C-5.67 5.68 -5.34 4.36 -5 3 C-3.35 2.67 -1.7 2.34 0 2 C0 1.34 0 0.68 0 0 Z " fill="#7C7C7C" transform="translate(130,178)"/>
<path d="M0 0 C0.89506817 2.96986552 1.03315169 5.25639788 0.66015625 8.328125 C0.56669922 9.12734375 0.47324219 9.9265625 0.37695312 10.75 C0.27318359 11.575 0.16941406 12.4 0.0625 13.25 C-0.08735352 14.51070312 -0.08735352 14.51070312 -0.24023438 15.796875 C-0.48704258 17.86536277 -0.74266284 19.93279572 -1 22 C-1.66 22 -2.32 22 -3 22 C-3 16.06 -3 10.12 -3 4 C-2.34 4 -1.68 4 -1 4 C-0.67 2.68 -0.34 1.36 0 0 Z " fill="#47A360" transform="translate(152,156)"/>
<path d="M0 0 C0 7.59 0 15.18 0 23 C-0.33 23 -0.66 23 -1 23 C-1.33 16.73 -1.66 10.46 -2 4 C-3.98 4.66 -5.96 5.32 -8 6 C-9.32911682 6.34976758 -10.66082739 6.69096017 -12 7 C-8.51013292 3.25162425 -5.32108894 0 0 0 Z " fill="#9EC84E" transform="translate(176,110)"/>
<path d="M0 0 C0 1.32 0 2.64 0 4 C-0.66 4 -1.32 4 -2 4 C-2 3.01 -2 2.02 -2 1 C-2.66 1 -3.32 1 -4 1 C-4 2.32 -4 3.64 -4 5 C-4.66 5 -5.32 5 -6 5 C-6 3.68 -6 2.36 -6 1 C-6.66 1 -7.32 1 -8 1 C-8 2.32 -8 3.64 -8 5 C-8.66 5 -9.32 5 -10 5 C-10 3.35 -10 1.7 -10 0 C-6.33694766 -0.74926071 -3.57644848 -1.2380014 0 0 Z " fill="#525252" transform="translate(169,183)"/>
<path d="M0 0 C0.66 0 1.32 0 2 0 C2 1.32 2 2.64 2 4 C3.65 3.67 5.3 3.34 7 3 C6.01 4.98 5.02 6.96 4 9 C3.67 7.68 3.34 6.36 3 5 C1.02 5.33 -0.96 5.66 -3 6 C-2.01 4.02 -1.02 2.04 0 0 Z " fill="#464646" transform="translate(112,172)"/>
<path d="M0 0 C0.66 0 1.32 0 2 0 C2 0.66 2 1.32 2 2 C2.66 2 3.32 2 4 2 C6 5 6 5 6 8 C4.35 8.33 2.7 8.66 1 9 C1.33 8.34 1.66 7.68 2 7 C1.484375 6.401875 0.96875 5.80375 0.4375 5.1875 C-0.036875 4.465625 -0.51125 3.74375 -1 3 C-0.67 2.01 -0.34 1.02 0 0 Z " fill="#939393" transform="translate(185,171)"/>
<path d="M0 0 C0.99 0 1.98 0 3 0 C4.35384615 7.38461538 4.35384615 7.38461538 2.5625 10.5 C2.046875 10.995 1.53125 11.49 1 12 C0.01751476 7.9472484 -0.08159574 4.16138263 0 0 Z " fill="#DFC27F" transform="translate(121,144)"/>
<path d="M0 0 C0.66 0 1.32 0 2 0 C2 3.63 2 7.26 2 11 C1.01 11.495 1.01 11.495 0 12 C-0.19401633 10.18818595 -0.38004375 8.37551468 -0.5625 6.5625 C-0.66691406 5.55316406 -0.77132812 4.54382813 -0.87890625 3.50390625 C-0.91886719 2.67761719 -0.95882812 1.85132813 -1 1 C-0.67 0.67 -0.34 0.34 0 0 Z " fill="#DEC17D" transform="translate(177,144)"/>
<path d="M0 0 C3.79598549 1.49128001 5.71720399 3.65733441 8 7 C8 7.99 8 8.98 8 10 C5.69 9.67 3.38 9.34 1 9 C2.32 8.67 3.64 8.34 5 8 C3.13433512 4.37206002 3.13433512 4.37206002 0 2 C0 1.34 0 0.68 0 0 Z " fill="#5FA646" transform="translate(133,139)"/>
<path d="M0 0 C0.81571335 2.35241204 1.11686468 3.62646319 0.36328125 6.03515625 C-3.14000782 12.79429018 -3.14000782 12.79429018 -7 15 C-7.66 14.34 -8.32 13.68 -9 13 C-8.2575 12.525625 -7.515 12.05125 -6.75 11.5625 C-3.13798977 8.19676319 -1.74022551 4.54986335 0 0 Z " fill="#CAE1BC" transform="translate(164,131)"/>
<path d="M0 0 C0.99 0 1.98 0 3 0 C3 2.66666667 3 5.33333333 3 8 C1.68 7.67 0.36 7.34 -1 7 C-0.01 7 0.98 7 2 7 C2 6.34 2 5.68 2 5 C0.68 4.67 -0.64 4.34 -2 4 C-1.34 2.68 -0.68 1.36 0 0 Z " fill="#5E5E5E" transform="translate(154,181)"/>
<path d="M0 0 C2.18975773 3.28463659 2.99806563 6.20696275 4 10 C3.34 10 2.68 10 2 10 C1.67 11.32 1.34 12.64 1 14 C0.63794536 12.04310963 0.28558579 10.08442332 -0.0625 8.125 C-0.25972656 7.03445312 -0.45695313 5.94390625 -0.66015625 4.8203125 C-1 2 -1 2 0 0 Z " fill="#77B679" transform="translate(147,150)"/>
<path d="M0 0 C0.66 0.33 1.32 0.66 2 1 C0.49760034 4.61941735 -0.82145293 7.7321794 -3 11 C-3.66 9.68 -4.32 8.36 -5 7 C-1.125 1.125 -1.125 1.125 0 0 Z " fill="#6DB067" transform="translate(156,148)"/>
<path d="M0 0 C1.98 0.99 3.96 1.98 6 3 C6 5.64 6 8.28 6 11 C0 3.28571429 0 3.28571429 0 0 Z " fill="#5DA547" transform="translate(141,141)"/>
<path d="M0 0 C1.98 0 3.96 0 6 0 C6.66 1.32 7.32 2.64 8 4 C5.525 3.01 5.525 3.01 3 2 C3.33 3.32 3.66 4.64 4 6 C3.34 6 2.68 6 2 6 C1.34 4.02 0.68 2.04 0 0 Z " fill="#454545" transform="translate(180,175)"/>
<path d="M0 0 C-0.33 1.98 -0.66 3.96 -1 6 C-2.32 5.67 -3.64 5.34 -5 5 C-5 3.68 -5 2.36 -5 1 C-2 0 -2 0 0 0 Z " fill="#555555" transform="translate(123,178)"/>
<path d="M0 0 C-0.33 1.98 -0.66 3.96 -1 6 C-1.66 6 -2.32 6 -3 6 C-3 4.68 -3 3.36 -3 2 C-3.66 2 -4.32 2 -5 2 C-5 2.99 -5 3.98 -5 5 C-5.66 5 -6.32 5 -7 5 C-6.6875 3.0625 -6.6875 3.0625 -6 1 C-3 0 -3 0 0 0 Z " fill="#434343" transform="translate(135,181)"/>
<path d="M0 0 C0.66 0.33 1.32 0.66 2 1 C-0.64 3.64 -3.28 6.28 -6 9 C-6 6 -6 6 -3.5625 3.375 C-2.716875 2.59125 -1.87125 1.8075 -1 1 C-0.67 0.67 -0.34 0.34 0 0 Z " fill="#E2EFDF" transform="translate(162,145)"/>
<path d="M0 0 C0.99 0 1.98 0 3 0 C3 0.99 3 1.98 3 3 C3.66 3.33 4.32 3.66 5 4 C4.360625 4.103125 3.72125 4.20625 3.0625 4.3125 C2.381875 4.539375 1.70125 4.76625 1 5 C0.67 5.99 0.34 6.98 0 8 C-0.33 7.34 -0.66 6.68 -1 6 C-0.33333333 4.66666667 0.33333333 3.33333333 1 2 C0.67 1.34 0.34 0.68 0 0 Z " fill="#BCBCBC" transform="translate(117,174)"/>
</svg>
